# AST/ASF file generated using VICON BodyLanguage
# -----------------------------------------------
:version 1.10
:name VICON
:units
  mass 1.0
  length 0.45
  angle deg
:documentation
   .ast/.asf automatically generated from VICON data using
   VICON BodyBuilder and BodyLanguage model FoxedUp or BRILLIANT.MOD
:root
   order TX TY TZ RX RY RZ
   axis XYZ
   position 0 0 0  
   orientation 0 0 0 
:bonedata
  begin
     id 1 
     name lhipjoint
     direction 0.566809 -0.746272 0.349008 
     length 2.40479 
     axis 0 0 0  XYZ
  end
  begin
     id 2 
     name lfemur
     direction 0.34202 -0.939693 0  
     length 7.1578  
     axis 0 0 20  XYZ
    dof rx ry rz
    limits (-160.0 20.0)
           (-70.0 70.0)
           (-60.0 70.0)
  end
  begin
     id 3 
     name ltibia
     direction 0.34202 -0.939693 0   
     length 7.49137   
     axis 0 0 20   XYZ
    dof rx
    limits (-10.0 170.0)
  end
  begin
     id 4 
     name lfoot
     direction 0.0665746 -0.182912 0.980873   
     length 2.36784   
     axis -90 7.62852e-016 20   XYZ
    dof rx rz
    limits (-45.0 90.0)
           (-70.0 20.0)
  end
  begin
     id 5 
     name ltoes
     direction 1.53601e-011 -4.22058e-011 1   
     length 1.18966   
     axis -90 7.62852e-016 20   XYZ
    dof rx
    limits (-90.0 20.0)
  end
  begin
     id 6 
     name rhipjoint
     direction -0.550236 -0.756381 0.353735   
     length 2.37265  
     axis 0 0 0  XYZ 
  end
  begin
     id 7 
     name rfemur
     direction -0.34202 -0.939693 0   
     length 7.43386   
     axis 0 0 -20   XYZ
    dof rx ry rz
    limits (-160.0 20.0)
           (-70.0 70.0)
           (-70.0 60.0)
  end
  begin
     id 8 
     name rtibia
     direction -0.34202 -0.939693 0   
     length 7.50908   
     axis 0 0 -20   XYZ
    dof rx
    limits (-10.0 170.0)
 end
 begin
     id 9 
     name rfoot
     direction -0.0683029 -0.187661 0.979856   
     length 2.41173  
     axis -90 -7.62852e-016 -20   XYZ
    dof rx rz
    limits (-45.0 90.0)
           (-20.0 70.0)
  end
  begin
     id 10 
     name rtoes
     direction -1.53528e-011 -4.21968e-011 1   
     length 1.21082   
     axis -90 -7.62852e-016 -20   XYZ
    dof rx
    limits (-90.0 20.0)
  end
  begin
     id 11 
     name lowerback
     direction 0.013823 0.995423 -0.0945635   
     length 2.04495   
     axis 0 0 0   XYZ
    dof rx ry rz
    limits (-20.0 45.0)
           (-30.0 30.0)
           (-30.0 30.0)
  end
  begin
     id 12 
     name upperback
     direction 0.0276657 0.9994 -0.020853   
     length 2.05008   
     axis 0 0 0   XYZ
    dof rx ry rz
    limits (-20.0 45.0)
           (-30.0 30.0)
           (-30.0 30.0)
  end
  begin
     id 13 
     name thorax
     direction 0.019782 0.999531 0.0233827   
     length 2.06488   
     axis 0 0 0   XYZ
    dof rx ry rz
    limits (-20.0 45.0)
           (-30.0 30.0)
           (-30.0 30.0)
  end
  begin
     id 14 
     name lowerneck
     direction -0.0308541 0.994709 0.0979874   
     length 1.75553   
     axis 0 0 0   XYZ
    dof rx ry rz
    limits (-20.0 45.0)
           (-30.0 30.0)
           (-30.0 30.0)
  end
  begin
     id 15 
     name upperneck
     direction 0.0588398 0.995804 -0.0700903   
     length 1.76878   
     axis 0 0 0   XYZ
    dof rx ry rz
    limits (-20.0 45.0)
           (-30.0 30.0)
           (-30.0 30.0)
  end
  begin
     id 16
     name head
     direction 0.0209966 0.999159 -0.0352225  
     length 1.77193  
     axis 0 0 0   XYZ
    dof rx ry rz
    limits (-20.0 45.0)
           (-30.0 30.0)
           (-30.0 30.0)
  end
  begin
     id 17 
     name lclavicle
     direction 0.938182 0.335073 -0.0868338  
     length 3.58396  
     axis 0 0 0   XYZ
    dof ry rz
    limits (-20.0 10.0)
           (0.0 20.0)
  end
  begin
     id 18 
     name lhumerus
     direction 1 -4.48971e-011 -1.26313e-017   
     length 4.983   
     axis 180 -30 -90   XYZ
    dof rx ry rz
    limits (-60.0 90.0)
           (-90.0 90.0)
           (-90.0 90.0)
  end
  begin
     id 19
     name lradius
     direction 1 -4.48948e-011 -5.89033e-027   
     length 3.48356   
     axis 180 -30 -90   XYZ
    dof rx
    limits (-10.0 170.0)
  end
  begin
     id 20
     name lwrist
     direction 1 -4.48977e-011 -1.48983e-026   
     length 1.74178   
     axis 9.0955e-015 90 90   XYZ
    dof ry
    limits (-180.0 0.0)
 end
  begin
     id 21 
     name lhand
     direction 1 -4.49046e-011 -2.98066e-026   
     length 0.715259   
     axis 1.90115e-014 90 90   XYZ
    dof rx rz
    limits (-90.0 90.0)
           (-45.0 45.0)
  end
  begin
     id 22 
     name lfingers
     direction 1 -4.48907e-011 -5.95731e-026   
     length 0.576661   
     axis 3.80223e-014 90 90   XYZ
    dof rx
    limits (0.0 90.0)
  end
  begin
     id 23
     name lthumb
     direction 0.707107 -6.34963e-011 0.707107   
     length 0.827973   
     axis -90 45 -3.84942e-014   XYZ
    dof rx rz
    limits (-45.0 45.0)
           (-45.0 45.0)
  end
  begin
     id 24 
     name rclavicle
     direction -0.909637 0.398485 -0.11735   
     length 3.44819  
     axis 0 0 0   XYZ 
    dof ry rz
    limits (-10.0 20.0)
           (-20.0 0.0)
  end
  begin
     id 25 
     name rhumerus
     direction -1 -4.48978e-011 -1.09333e-027  
     length 5.2419   
     axis 180 30 90   XYZ
    dof rx ry rz
    limits (-90.0 60.0)
           (-90.0 90.0)
           (-90.0 90.0)
  end
  begin
     id 26 
     name rradius
     direction -1 -4.48953e-011 -7.61841e-027   
     length 3.44417   
     axis 180 30 90   XYZ
    dof rx
    limits (-10.0 170.0)
  end
  begin
     id 27 
     name rwrist
     direction -1 -4.48977e-011 -1.48983e-026   
     length 1.72209   
     axis 9.0955e-015 -90 -90   XYZ
    dof ry
    limits (-180.0 0.0)
  end
  begin
     id 28
     name rhand
     direction -1 -4.49027e-011 -2.98038e-026   
     length 0.622529   
     axis 1.90115e-014 -90 -90   XYZ
    dof rx rz
    limits (-90.0 90.0)
           (-45.0 45.0)
  end
  begin
     id 29
     name rfingers
     direction -1 -4.48838e-011 -5.95531e-026   
     length 0.501899   
     axis 3.80223e-014 -90 -90   XYZ
    dof rx
    limits (0.0 90.0)
  end
  begin
     id 30
     name rthumb
     direction -0.707107 -6.34937e-011 0.707107   
     length 0.720629   
     axis -90 -45 3.84942e-014   XYZ
    dof rx rz
    limits (-45.0 45.0)
           (-45.0 45.0)
  end
:hierarchy
  begin
    root lhipjoint rhipjoint lowerback
    lhipjoint lfemur
    lfemur ltibia
    ltibia lfoot
    lfoot ltoes
    rhipjoint rfemur
    rfemur rtibia
    rtibia rfoot
    rfoot rtoes
    lowerback upperback
    upperback thorax
    thorax lowerneck lclavicle rclavicle
    lowerneck upperneck
    upperneck head
    lclavicle lhumerus
    lhumerus lradius
    lradius lwrist
    lwrist lhand lthumb
    lhand lfingers
    rclavicle rhumerus
    rhumerus rradius
    rradius rwrist
    rwrist rhand rthumb
    rhand rfingers
  end

#!OML:ASF F:\VICON\USERDATA\Patient Classification 1\PLAYGROUND\JustinFriday\JustinFriday.ASF
:FULLY-SPECIFIED
:DEGREES
821
root 26.3865 30.6953 -9.98996 103.59 -86.441 -67.4761
lowerback 24.6833 1.06202 -3.09171
upperback 7.95687 0.141657 1.3526
thorax -4.95369 -0.197039 3.22383
lowerneck 11.7969 -20.7534 -8.84862
upperneck -39.6453 -25.0836 32.7048
head -8.1515 -16.6599 14.9606
rclavicle -9.54166e-015 8.34896e-015
rhumerus -15.8206 23.3324 -90.0165
rradius 68.6144
rwrist 26.3281
rhand -61.9712 20.8589
rfingers 7.12502
rthumb -34.0263 -5.91897
lclavicle -9.54166e-015 8.34896e-015
lhumerus -17.8818 -14.6948 87.23
lradius 71.0966
lwrist -41.565
lhand -36.9741 -43.7023
lfingers 7.12502
lthumb -10.0496 -13.9623
rfemur -30.8887 1.54817 28.6756
rtibia 36.143
rfoot -34.6825 -2.51882
rtoes 17.2875
lfemur -35.5934 1.78934 -14.7285
ltibia 41.8511
lfoot -32.031 0.0972777
ltoes 2.11837
822
root 26.3482 30.6883 -9.98234 103.557 -86.4029 -67.4458
lowerback 24.3248 0.96271 -3.26553
upperback 7.93892 0.0072297 1.54102
thorax -4.78368 -0.26446 3.56267
lowerneck 12.0567 -20.5104 -8.83717
upperneck -40.115 -24.8357 32.4877
head -8.46966 -16.5198 15.0989
rclavicle -3.65764e-014 -2.66371e-014
rhumerus -15.8533 23.9194 -89.8472
rradius 68.0324
rwrist 26.1932
rhand -62.1833 21.5896
rfingers 7.12502
rthumb -34.2278 -5.14328
lclavicle -3.65764e-014 -2.66371e-014
lhumerus -18.237 -14.4189 87.5871
lradius 70.9702
lwrist -41.5198
lhand -37.0533 -43.5955
lfingers 7.12502
lthumb -10.1261 -13.8591
rfemur -30.7171 1.71859 28.6663
rtibia 36.1503
rfoot -34.6931 -2.91867
rtoes 17.0353
lfemur -35.1536 1.38369 -14.6342
ltibia 41.4263
lfoot -32.3673 0.834833
ltoes 0.882386
823
root 26.3118 30.6863 -9.97668 104.341 -86.4057 -68.358
lowerback 24.1181 0.881055 -3.94314
upperback 8.02786 -0.221567 1.93028
thorax -4.55382 -0.392234 4.43731
lowerneck 11.8885 -20.188 -8.73682
upperneck -40.4806 -24.5581 31.9823
head -8.7581 -16.3262 15.0494
rclavicle -2.50469e-014 -5.74488e-014
rhumerus -15.616 25.142 -89.4838
rradius 67.4832
rwrist 25.9491
rhand -62.2817 22.1412
rfingers 7.12502
rthumb -34.3213 -4.57071
lclavicle -2.50469e-014 -5.74488e-014
lhumerus -18.5299 -13.8523 87.9325
lradius 70.8583
lwrist -41.3316
lhand -37.4472 -43.2176
lfingers 7.12502
lthumb -10.5061 -13.5002
rfemur -30.4391 1.79788 28.6549
rtibia 36.1561
rfoot -34.7605 -3.52342
rtoes 15.6661
lfemur -34.5584 1.12314 -14.6095
ltibia 40.9978
lfoot -32.7067 1.15752
ltoes 1.13831
824
root 26.2873 30.6819 -9.96875 100.057 -86.5698 -64.1695
lowerback 24.2604 0.622643 -3.50371
upperback 7.73726 -0.462551 1.45727
thorax -4.93047 -0.475714 3.73913
lowerneck 12.5482 -20.1602 -7.7564
upperneck -40.6894 -24.3968 31.5904
head -9.25282 -16.2696 15.0824
rclavicle 4.85035e-014 5.68524e-014
rhumerus -16.2844 24.6621 -90.5281
rradius 67.0259
rwrist 26.1018
rhand -62.4058 23.0409
rfingers 7.12502
rthumb -34.4391 -3.64436
lclavicle 4.85035e-014 5.68524e-014
lhumerus -18.9615 -13.0944 87.9141
lradius 69.704
lwrist -42.3605
lhand -37.8635 -44.5401
lfingers 7.12502
lthumb -10.9076 -14.8434
rfemur -30.2847 1.64222 28.432
rtibia 36.1736
rfoot -34.6442 -3.73068
rtoes 15.8127
lfemur -34.0991 0.148352 -14.6593
ltibia 40.562
lfoot -33.051 1.69188
ltoes 1.28034
825
root 26.252 30.669 -9.96947 106.12 -86.6173 -70.1823
lowerback 23.8778 0.530388 -4.15411
upperback 7.27996 -0.693344 1.17827
thorax -5.21345 -0.553184 3.87021
lowerneck 12.1532 -20.3911 -0.374341
upperneck -41.6012 -25.6684 23.9024
head -12.204 -16.1765 12.4851
rclavicle -2.14687e-014 -1.59028e-014
rhumerus -17.6032 25.1189 -91.9157
rradius 66.868
rwrist 26.1513
rhand -62.4533 23.708
rfingers 7.12502
rthumb -34.4841 -2.96698
lclavicle -2.14687e-014 -1.59028e-014
lhumerus -20.8036 -13.309 87.4914
lradius 70.2805
lwrist -41.8769
lhand -37.9583 -44.4751
lfingers 7.12502
lthumb -10.999 -14.7833
rfemur -30.181 1.89207 28.3628
rtibia 36.1969
rfoot -34.6391 -3.41864
rtoes 16.9626
lfemur -33.6333 0.289351 -14.7166
ltibia 40.1169
lfoot -33.3819 1.79471
ltoes 0.902892
